<mxfile host="app.diagrams.net" agent="Mozilla/5.0 (Windows NT 10.0; Win64; x64) AppleWebKit/537.36 (KHTML, like Gecko) Chrome/140.0.0.0 Safari/537.36" version="28.2.1">
  <diagram name="Página-1" id="3IC8XIEDgEDAmwl72odU">
    <mxGraphModel grid="1" page="1" gridSize="10" guides="1" tooltips="1" connect="1" arrows="1" fold="1" pageScale="1" pageWidth="827" pageHeight="1169" math="0" shadow="0">
      <root>
        <mxCell id="0" />
        <mxCell id="1" parent="0" />
        <mxCell id="s4CaRwKIjP8klqn7yHRU-3" value="" style="edgeStyle=orthogonalEdgeStyle;rounded=0;orthogonalLoop=1;jettySize=auto;html=1;" edge="1" parent="1" source="s4CaRwKIjP8klqn7yHRU-1" target="s4CaRwKIjP8klqn7yHRU-2">
          <mxGeometry relative="1" as="geometry" />
        </mxCell>
        <mxCell id="s4CaRwKIjP8klqn7yHRU-1" value="&lt;font style=&quot;font-size: 13px;&quot;&gt;Biblioteca&lt;/font&gt;" style="rounded=0;whiteSpace=wrap;html=1;" vertex="1" parent="1">
          <mxGeometry x="320" y="40" width="160" height="60" as="geometry" />
        </mxCell>
        <mxCell id="s4CaRwKIjP8klqn7yHRU-5" value="" style="edgeStyle=orthogonalEdgeStyle;rounded=0;orthogonalLoop=1;jettySize=auto;html=1;" edge="1" parent="1" source="s4CaRwKIjP8klqn7yHRU-2" target="s4CaRwKIjP8klqn7yHRU-4">
          <mxGeometry relative="1" as="geometry" />
        </mxCell>
        <mxCell id="s4CaRwKIjP8klqn7yHRU-29" style="edgeStyle=orthogonalEdgeStyle;rounded=0;orthogonalLoop=1;jettySize=auto;html=1;exitX=1;exitY=0.5;exitDx=0;exitDy=0;entryX=0;entryY=0.5;entryDx=0;entryDy=0;" edge="1" parent="1" source="s4CaRwKIjP8klqn7yHRU-2" target="s4CaRwKIjP8klqn7yHRU-28">
          <mxGeometry relative="1" as="geometry" />
        </mxCell>
        <mxCell id="s4CaRwKIjP8klqn7yHRU-2" value="Empresta" style="rhombus;whiteSpace=wrap;html=1;rounded=0;" vertex="1" parent="1">
          <mxGeometry x="360" y="160" width="80" height="80" as="geometry" />
        </mxCell>
        <mxCell id="s4CaRwKIjP8klqn7yHRU-7" value="" style="edgeStyle=orthogonalEdgeStyle;rounded=0;orthogonalLoop=1;jettySize=auto;html=1;" edge="1" parent="1" source="s4CaRwKIjP8klqn7yHRU-4" target="s4CaRwKIjP8klqn7yHRU-6">
          <mxGeometry relative="1" as="geometry" />
        </mxCell>
        <mxCell id="s4CaRwKIjP8klqn7yHRU-12" value="" style="edgeStyle=orthogonalEdgeStyle;rounded=0;orthogonalLoop=1;jettySize=auto;html=1;" edge="1" parent="1" source="s4CaRwKIjP8klqn7yHRU-4" target="s4CaRwKIjP8klqn7yHRU-10">
          <mxGeometry relative="1" as="geometry" />
        </mxCell>
        <mxCell id="s4CaRwKIjP8klqn7yHRU-13" value="" style="edgeStyle=orthogonalEdgeStyle;rounded=0;orthogonalLoop=1;jettySize=auto;html=1;" edge="1" parent="1" source="s4CaRwKIjP8klqn7yHRU-4" target="s4CaRwKIjP8klqn7yHRU-11">
          <mxGeometry relative="1" as="geometry" />
        </mxCell>
        <mxCell id="s4CaRwKIjP8klqn7yHRU-4" value="Livros" style="rounded=0;whiteSpace=wrap;html=1;" vertex="1" parent="1">
          <mxGeometry x="340" y="320" width="120" height="60" as="geometry" />
        </mxCell>
        <mxCell id="s4CaRwKIjP8klqn7yHRU-6" value="Nome" style="ellipse;whiteSpace=wrap;html=1;" vertex="1" parent="1">
          <mxGeometry x="180" y="320" width="100" height="60" as="geometry" />
        </mxCell>
        <mxCell id="s4CaRwKIjP8klqn7yHRU-10" value="RA" style="ellipse;whiteSpace=wrap;html=1;" vertex="1" parent="1">
          <mxGeometry x="520" y="320" width="100" height="60" as="geometry" />
        </mxCell>
        <mxCell id="s4CaRwKIjP8klqn7yHRU-22" style="edgeStyle=orthogonalEdgeStyle;rounded=0;orthogonalLoop=1;jettySize=auto;html=1;exitX=0;exitY=1;exitDx=0;exitDy=0;entryX=1;entryY=0.5;entryDx=0;entryDy=0;" edge="1" parent="1" source="s4CaRwKIjP8klqn7yHRU-11" target="s4CaRwKIjP8klqn7yHRU-18">
          <mxGeometry relative="1" as="geometry">
            <mxPoint x="329.9999999999999" y="590" as="targetPoint" />
            <Array as="points">
              <mxPoint x="340" y="590" />
            </Array>
          </mxGeometry>
        </mxCell>
        <mxCell id="s4CaRwKIjP8klqn7yHRU-23" style="edgeStyle=orthogonalEdgeStyle;rounded=0;orthogonalLoop=1;jettySize=auto;html=1;exitX=0;exitY=1;exitDx=0;exitDy=0;entryX=1;entryY=0.5;entryDx=0;entryDy=0;" edge="1" parent="1" source="s4CaRwKIjP8klqn7yHRU-11" target="s4CaRwKIjP8klqn7yHRU-16">
          <mxGeometry relative="1" as="geometry">
            <mxPoint x="340.0689655172414" y="670" as="targetPoint" />
          </mxGeometry>
        </mxCell>
        <mxCell id="s4CaRwKIjP8klqn7yHRU-24" style="edgeStyle=orthogonalEdgeStyle;rounded=0;orthogonalLoop=1;jettySize=auto;html=1;exitX=0;exitY=1;exitDx=0;exitDy=0;entryX=1;entryY=0.5;entryDx=0;entryDy=0;" edge="1" parent="1" source="s4CaRwKIjP8klqn7yHRU-11" target="s4CaRwKIjP8klqn7yHRU-15">
          <mxGeometry relative="1" as="geometry">
            <mxPoint x="340.0689655172414" y="520" as="targetPoint" />
            <Array as="points">
              <mxPoint x="340" y="520" />
            </Array>
          </mxGeometry>
        </mxCell>
        <mxCell id="s4CaRwKIjP8klqn7yHRU-25" style="edgeStyle=orthogonalEdgeStyle;rounded=0;orthogonalLoop=1;jettySize=auto;html=1;exitX=1;exitY=1;exitDx=0;exitDy=0;entryX=0;entryY=0.5;entryDx=0;entryDy=0;" edge="1" parent="1" source="s4CaRwKIjP8klqn7yHRU-11" target="s4CaRwKIjP8klqn7yHRU-14">
          <mxGeometry relative="1" as="geometry">
            <mxPoint x="460.0689655172414" y="520" as="targetPoint" />
            <Array as="points">
              <mxPoint x="460" y="520" />
            </Array>
          </mxGeometry>
        </mxCell>
        <mxCell id="s4CaRwKIjP8klqn7yHRU-26" style="edgeStyle=orthogonalEdgeStyle;rounded=0;orthogonalLoop=1;jettySize=auto;html=1;exitX=1;exitY=1;exitDx=0;exitDy=0;entryX=0;entryY=0.5;entryDx=0;entryDy=0;" edge="1" parent="1" source="s4CaRwKIjP8klqn7yHRU-11" target="s4CaRwKIjP8klqn7yHRU-19">
          <mxGeometry relative="1" as="geometry">
            <mxPoint x="460.0689655172414" y="600" as="targetPoint" />
          </mxGeometry>
        </mxCell>
        <mxCell id="s4CaRwKIjP8klqn7yHRU-27" style="edgeStyle=orthogonalEdgeStyle;rounded=0;orthogonalLoop=1;jettySize=auto;html=1;exitX=1;exitY=1;exitDx=0;exitDy=0;entryX=0;entryY=0.5;entryDx=0;entryDy=0;" edge="1" parent="1" source="s4CaRwKIjP8klqn7yHRU-11" target="s4CaRwKIjP8klqn7yHRU-17">
          <mxGeometry relative="1" as="geometry">
            <mxPoint x="460.0689655172414" y="680" as="targetPoint" />
          </mxGeometry>
        </mxCell>
        <mxCell id="s4CaRwKIjP8klqn7yHRU-11" value="Aluno" style="rounded=0;whiteSpace=wrap;html=1;" vertex="1" parent="1">
          <mxGeometry x="340" y="430" width="120" height="60" as="geometry" />
        </mxCell>
        <mxCell id="s4CaRwKIjP8klqn7yHRU-14" value="RA" style="ellipse;whiteSpace=wrap;html=1;" vertex="1" parent="1">
          <mxGeometry x="480" y="490" width="100" height="60" as="geometry" />
        </mxCell>
        <mxCell id="s4CaRwKIjP8klqn7yHRU-15" value="Nome" style="ellipse;whiteSpace=wrap;html=1;" vertex="1" parent="1">
          <mxGeometry x="220" y="490" width="100" height="60" as="geometry" />
        </mxCell>
        <mxCell id="s4CaRwKIjP8klqn7yHRU-16" value="Data N" style="ellipse;whiteSpace=wrap;html=1;" vertex="1" parent="1">
          <mxGeometry x="220" y="640" width="100" height="60" as="geometry" />
        </mxCell>
        <mxCell id="s4CaRwKIjP8klqn7yHRU-17" value="Idade" style="ellipse;whiteSpace=wrap;html=1;" vertex="1" parent="1">
          <mxGeometry x="480" y="640" width="100" height="60" as="geometry" />
        </mxCell>
        <mxCell id="s4CaRwKIjP8klqn7yHRU-18" value="Endereço" style="ellipse;whiteSpace=wrap;html=1;" vertex="1" parent="1">
          <mxGeometry x="220" y="560" width="100" height="60" as="geometry" />
        </mxCell>
        <mxCell id="s4CaRwKIjP8klqn7yHRU-19" value="CPF" style="ellipse;whiteSpace=wrap;html=1;" vertex="1" parent="1">
          <mxGeometry x="480" y="560" width="100" height="60" as="geometry" />
        </mxCell>
        <mxCell id="s4CaRwKIjP8klqn7yHRU-31" value="" style="edgeStyle=orthogonalEdgeStyle;rounded=0;orthogonalLoop=1;jettySize=auto;html=1;" edge="1" parent="1" source="s4CaRwKIjP8klqn7yHRU-28" target="s4CaRwKIjP8klqn7yHRU-30">
          <mxGeometry relative="1" as="geometry" />
        </mxCell>
        <mxCell id="s4CaRwKIjP8klqn7yHRU-28" value="Emprestimo" style="rounded=0;whiteSpace=wrap;html=1;" vertex="1" parent="1">
          <mxGeometry x="570" y="170" width="120" height="60" as="geometry" />
        </mxCell>
        <mxCell id="s4CaRwKIjP8klqn7yHRU-33" value="" style="edgeStyle=orthogonalEdgeStyle;rounded=0;orthogonalLoop=1;jettySize=auto;html=1;" edge="1" parent="1" source="s4CaRwKIjP8klqn7yHRU-30" target="s4CaRwKIjP8klqn7yHRU-32">
          <mxGeometry relative="1" as="geometry" />
        </mxCell>
        <mxCell id="s4CaRwKIjP8klqn7yHRU-36" value="" style="edgeStyle=orthogonalEdgeStyle;rounded=0;orthogonalLoop=1;jettySize=auto;html=1;" edge="1" parent="1" source="s4CaRwKIjP8klqn7yHRU-30" target="s4CaRwKIjP8klqn7yHRU-34">
          <mxGeometry relative="1" as="geometry" />
        </mxCell>
        <mxCell id="s4CaRwKIjP8klqn7yHRU-37" value="" style="edgeStyle=orthogonalEdgeStyle;rounded=0;orthogonalLoop=1;jettySize=auto;html=1;" edge="1" parent="1" source="s4CaRwKIjP8klqn7yHRU-30" target="s4CaRwKIjP8klqn7yHRU-35">
          <mxGeometry relative="1" as="geometry" />
        </mxCell>
        <mxCell id="s4CaRwKIjP8klqn7yHRU-30" value="Status" style="rounded=0;whiteSpace=wrap;html=1;" vertex="1" parent="1">
          <mxGeometry x="770" y="170" width="120" height="60" as="geometry" />
        </mxCell>
        <mxCell id="s4CaRwKIjP8klqn7yHRU-32" value="Data de devolução" style="ellipse;whiteSpace=wrap;html=1;" vertex="1" parent="1">
          <mxGeometry x="780" y="280" width="100" height="60" as="geometry" />
        </mxCell>
        <mxCell id="s4CaRwKIjP8klqn7yHRU-34" value="Data de retirada" style="ellipse;whiteSpace=wrap;html=1;" vertex="1" parent="1">
          <mxGeometry x="780" y="60" width="100" height="60" as="geometry" />
        </mxCell>
        <mxCell id="s4CaRwKIjP8klqn7yHRU-35" value="Devolvido" style="ellipse;whiteSpace=wrap;html=1;" vertex="1" parent="1">
          <mxGeometry x="930" y="170" width="100" height="60" as="geometry" />
        </mxCell>
      </root>
    </mxGraphModel>
  </diagram>
</mxfile>
